<?xml version="1.0" encoding="UTF-8" standalone="no"?>
<!-- Created with Inkscape (http://www.inkscape.org/) -->

<svg
   width="10.030742mm"
   height="15.884319mm"
   viewBox="0 0 10.030742 15.884319"
   version="1.1"
   id="svg1"
   xml:space="preserve"
   xmlns="http://www.w3.org/2000/svg"
   xmlns:svg="http://www.w3.org/2000/svg"><defs
     id="defs1"><linearGradient
       id="swatch348"><stop
         style="stop-color:#b3c571;stop-opacity:1;"
         offset="0"
         id="stop348" /></linearGradient><linearGradient
       id="swatch189"><stop
         style="stop-color:#d9d731;stop-opacity:1;"
         offset="0"
         id="stop189" /></linearGradient></defs><g
     id="layer1"
     transform="translate(-10.204356,-6.4729976)"><path
       style="fill:#ff4e02;stroke:none;stroke-width:0.0426084"
       d="m 14.734812,6.4729974 c 0.563686,1.453324 1.044131,3.168658 0.484158,4.7010356 -0.199706,0.546497 -0.565213,0.977702 -0.851362,1.476825 -0.370113,0.645572 -0.63738,1.353942 -0.716921,2.096865 -0.03238,0.302352 -0.06359,0.676286 0.03568,0.969517 -0.463314,-0.13372 -0.488001,-0.789977 -0.436479,-1.172438 0.03274,-0.243004 0.116428,-0.471473 0.165882,-0.710229 0.05016,-0.242154 0.06228,-0.485975 0.05623,-0.732776 -0.02807,-1.146309 -0.541934,-2.180649 -0.946802,-3.2242106 h -0.0113 c 0.0228,0.2864506 0.11587,0.5691536 0.144644,0.8567826 0.052,0.519682 0.0203,1.030046 -0.12689,1.53319 -0.388084,1.326755 -1.161126,2.52723 -1.73481,3.776614 -0.158034,0.344181 -0.330536,0.672026 -0.439332,1.037159 -0.226698,0.760816 -0.213619,1.604337 0.119357,2.333607 0.142096,0.311215 0.31942,0.600506 0.533141,0.868058 0.31918,0.399577 0.70456,0.748547 1.12058,1.045155 0.296362,0.211294 0.604506,0.397408 0.924425,0.570431 0.187865,0.101609 0.39126,0.2194 0.597491,0.278356 -0.102142,-0.126285 -0.263694,-0.216529 -0.383296,-0.327938 -0.251867,-0.234617 -0.478125,-0.495596 -0.660343,-0.788134 -0.645902,-1.036976 -0.5705,-2.292072 -0.13778,-3.393315 0.09057,-0.230514 0.196262,-0.460652 0.318155,-0.676408 0.07657,-0.135536 0.188377,-0.272395 0.243231,-0.417119 h 0.01131 c -0.0558,0.29615 0.05484,0.556919 0.199755,0.811691 0.258342,0.454183 0.616053,0.871582 0.983958,1.24008 0.153578,0.153831 0.294699,0.336273 0.473487,0.462212 -0.0097,-0.123244 -0.03861,-0.247902 -0.03338,-0.372025 0.04135,-0.980332 0.559739,-1.915053 1.104645,-2.705631 0.188528,-0.273528 0.41465,-0.524396 0.597205,-0.800416 h 0.0113 c 0.09062,0.156951 0.231741,0.288985 0.334326,0.439665 0.239535,0.351834 0.442757,0.727121 0.589499,1.127349 0.666605,1.8181 0.321724,3.822406 -0.360149,5.580365 0.182174,-0.05248 0.359065,-0.192503 0.518579,-0.292543 0.456858,-0.286542 0.87043,-0.622984 1.251356,-1.003905 0.304088,-0.30409 0.576446,-0.652453 0.790829,-1.025888 0.161175,-0.280748 0.305189,-0.573009 0.411551,-0.879328 0.835045,-2.40496 -0.11331,-4.999362 -1.222016,-7.14738 C 18.450591,11.535268 18.182924,11.072028 17.899085,10.621633 17.538947,10.050165 17.167578,9.4829414 16.762631,8.9418864 16.32362,8.3553224 15.877761,7.7768806 15.404751,7.2170465 15.263309,7.0496461 15.119401,6.884467 14.973445,6.7210138 14.898735,6.637355 14.826812,6.5378322 14.734833,6.4729974 Z"
       id="path377" /></g></svg>
